<?xml version="1.0" standalone="no"?>
<!DOCTYPE svg PUBLIC "-//W3C//DTD SVG 20010904//EN"
 "http://www.w3.org/TR/2001/REC-SVG-20010904/DTD/svg10.dtd">
<svg version="1.0" xmlns="http://www.w3.org/2000/svg"
 width="300.000000pt" height="225.000000pt" viewBox="0 0 300.000000 225.000000"
 preserveAspectRatio="xMidYMid meet">
<metadata>
Created by potrace 1.10, written by Peter Selinger 2001-2011
</metadata>
<g transform="translate(0.000000,225.000000) scale(0.100000,-0.100000)"
fill="#000000" stroke="none">
<path d="M816 2224 c-5 -17 -12 -24 -25 -22 -26 4 -61 -30 -61 -59 0 -32 13
-29 27 7 10 26 16 30 39 28 24 -3 29 2 37 29 5 18 17 34 26 36 9 3 4 5 -10 6
-21 1 -28 -5 -33 -25z"/>
<path d="M982 2145 c-21 -18 -56 -38 -78 -44 -27 -7 -45 -20 -57 -41 -10 -17
-27 -30 -37 -30 -11 0 -30 -14 -42 -31 -12 -16 -41 -38 -64 -49 -42 -18 -64
-44 -64 -74 0 -25 13 -18 35 17 11 18 30 33 42 35 12 2 36 19 52 38 17 19 39
34 50 34 11 0 27 14 39 34 14 24 30 36 54 41 18 4 50 23 71 41 21 20 48 34 62
34 32 0 32 16 0 22 -18 4 -35 -4 -63 -27z"/>
<path d="M1410 2150 c-18 -14 -38 -20 -71 -18 -34 1 -54 -4 -74 -20 -18 -15
-42 -22 -70 -22 -35 0 -46 -5 -73 -36 -29 -33 -36 -36 -70 -30 -20 4 -45 9
-54 12 -13 4 -23 -6 -38 -39 -18 -37 -25 -43 -44 -40 -20 4 -32 -5 -63 -45
-21 -28 -46 -52 -55 -55 -9 -3 -32 -26 -49 -51 -22 -30 -40 -46 -54 -46 -12 0
-29 -8 -37 -17 -24 -28 -98 -193 -98 -220 0 -31 16 -22 25 14 3 15 24 65 46
110 36 76 42 83 68 83 24 0 34 8 55 45 15 25 37 50 51 57 13 7 40 35 60 61 27
35 40 46 48 38 20 -20 33 -12 55 34 l22 45 58 -6 c59 -7 59 -6 87 30 24 32 32
36 72 36 29 0 55 7 74 20 19 14 41 20 67 19 27 -2 48 4 70 19 22 16 39 21 56
16 20 -5 26 -2 26 10 0 23 -59 20 -90 -4z"/>
<path d="M2480 2105 c0 -11 7 -14 23 -10 16 4 29 -1 46 -19 18 -19 28 -23 44
-17 15 6 25 3 34 -8 19 -26 26 -5 8 23 -15 22 -20 24 -38 14 -17 -9 -24 -7
-38 11 -21 25 -79 30 -79 6z"/>
<path d="M2317 2053 c-13 -12 -7 -23 14 -23 29 0 59 -18 59 -35 0 -10 11 -15
35 -15 25 0 37 -6 45 -21 7 -11 27 -27 46 -35 19 -8 34 -21 34 -29 0 -15 18
-30 26 -22 12 11 -27 65 -51 71 -13 3 -32 17 -41 31 -11 17 -25 25 -45 25 -16
0 -29 4 -29 10 0 20 -80 57 -93 43z"/>
<path d="M2102 2024 c-32 -22 -17 -37 18 -19 38 20 40 19 40 -9 0 -25 21 -36
72 -36 22 0 27 -5 30 -27 2 -23 10 -30 40 -37 26 -7 38 -16 42 -32 4 -15 22
-30 50 -43 35 -15 45 -25 48 -47 2 -21 10 -30 28 -34 19 -4 28 -16 38 -50 20
-67 34 -97 39 -83 4 12 -7 58 -29 115 -5 14 -20 29 -33 32 -18 5 -25 14 -27
37 -3 27 -10 34 -48 49 -35 14 -47 24 -54 49 -8 27 -14 31 -42 31 -30 0 -33 3
-36 33 -3 30 -6 32 -46 35 -35 3 -45 8 -52 28 -11 28 -44 32 -78 8z"/>
<path d="M1279 1947 c-47 -18 -103 -43 -124 -55 -22 -13 -55 -25 -75 -27 -20
-2 -49 -9 -65 -15 -53 -19 -149 -92 -195 -147 -24 -29 -49 -53 -55 -53 -5 0
-32 -30 -59 -67 -41 -57 -52 -83 -77 -182 -16 -63 -36 -122 -44 -131 -11 -10
-36 -15 -81 -15 -60 0 -67 -2 -86 -28 -14 -20 -21 -46 -23 -88 l-2 -61 -64
-55 c-35 -31 -67 -61 -71 -66 -8 -13 25 -57 55 -74 35 -19 84 -15 137 12 l50
25 21 -45 c12 -25 34 -55 49 -68 36 -29 68 -82 113 -188 42 -99 94 -193 142
-258 59 -81 189 -190 278 -234 95 -46 100 -47 354 -86 141 -21 203 -27 230
-20 21 5 59 9 86 9 26 0 73 9 104 20 32 11 65 20 75 20 10 0 66 25 125 56 80
41 126 73 176 122 97 95 167 184 217 277 72 133 125 206 169 232 23 13 48 37
56 53 9 17 33 39 55 50 36 18 40 24 40 58 0 28 -7 45 -25 62 -14 13 -36 48
-50 77 -25 54 -24 54 -95 57 -22 1 -26 7 -35 54 -6 29 -22 67 -37 86 -15 18
-29 51 -33 72 -11 66 -34 115 -81 169 -24 29 -44 58 -44 65 0 27 -77 124 -133
167 -31 24 -85 54 -119 65 -34 12 -90 41 -126 66 -78 55 -139 74 -249 80 -62
2 -89 -1 -113 -13 -31 -16 -33 -16 -59 8 -18 17 -46 28 -92 36 -96 16 -125 13
-220 -22z m239 -19 c53 -13 81 -41 82 -79 0 -15 6 -32 14 -38 12 -11 15 -6 18
30 2 32 8 43 23 47 43 11 182 5 233 -11 47 -14 142 -71 150 -89 2 -5 12 -8 21
-8 10 0 26 -9 35 -19 17 -18 16 -23 -2 -85 -19 -62 -17 -82 5 -53 19 25 41 98
37 122 -5 28 -1 31 18 12 7 -7 28 -23 46 -36 18 -12 30 -27 27 -32 -4 -5 2 -6
11 -2 11 4 15 2 11 -4 -4 -6 1 -10 11 -9 10 0 16 -6 16 -16 -1 -10 2 -16 6
-13 8 5 62 -70 68 -95 16 -64 15 -72 -14 -96 -16 -13 -32 -23 -36 -24 -13 0
-57 73 -51 83 3 6 1 7 -5 3 -6 -3 -14 0 -19 7 -13 22 -85 64 -123 72 -33 7
-34 6 -15 -9 11 -9 39 -25 61 -35 38 -17 124 -109 124 -132 0 -5 -16 -31 -35
-57 -45 -63 -176 -152 -223 -152 -24 0 -125 41 -134 55 -6 7 -11 6 -16 -3 -6
-9 -9 -4 -10 16 0 26 7 34 64 67 35 21 64 41 64 45 0 4 19 36 42 70 29 45 42
75 44 104 3 56 -29 128 -67 150 -16 10 -26 22 -23 28 4 7 2 8 -4 4 -6 -4 -22
0 -34 7 -13 8 -66 23 -118 32 -52 10 -100 21 -106 26 -14 11 -55 0 -79 -22
-20 -18 -21 -18 -55 25 -52 64 -89 74 -220 58 -102 -12 -152 -29 -177 -60 -11
-13 -14 -11 -23 13 -6 15 -9 29 -8 30 2 2 26 13 53 25 125 57 220 72 313 48z
m11 -108 c20 -10 46 -29 59 -42 l23 -25 -34 -79 c-29 -68 -49 -128 -51 -156
-2 -19 -18 -17 -49 6 -39 30 -109 53 -212 70 l-70 12 -6 65 c-5 65 -22 109
-39 109 -6 0 -10 10 -10 23 1 21 1 21 12 2 6 -11 12 -22 14 -24 2 -2 23 9 46
24 71 47 240 55 317 15z m-405 -31 c-2 -4 -20 -9 -41 -11 -61 -9 -152 -58
-204 -111 -76 -77 -90 -39 -15 41 37 40 158 113 201 122 23 4 34 1 47 -15 9
-11 14 -23 12 -26z m691 -29 c137 -33 178 -55 214 -115 27 -47 18 -94 -36
-178 -29 -45 -59 -77 -90 -97 -26 -17 -52 -39 -58 -50 -10 -19 -12 -19 -50 7
-22 14 -64 48 -93 75 -38 34 -71 53 -111 65 l-57 17 34 95 c64 180 70 193 83
202 20 13 24 12 164 -21z m-659 -27 c5 -21 8 -59 6 -85 l-4 -47 -37 1 c-21 0
-48 -5 -61 -12 -12 -6 -31 -10 -41 -7 -10 3 -17 1 -13 -4 3 -5 -1 -9 -8 -9 -8
0 -31 -9 -53 -20 -51 -26 -52 -26 -75 12 l-19 31 36 44 c22 26 42 42 50 39 9
-4 11 -1 7 6 -5 8 -2 9 10 5 9 -4 15 -3 11 2 -4 8 39 32 125 69 44 19 55 14
66 -25z m-356 -133 c10 -5 27 -26 39 -45 11 -20 25 -34 29 -31 11 7 38 -11 29
-20 -4 -4 -18 -2 -30 5 -43 23 -86 7 -149 -56 -32 -31 -58 -52 -58 -46 0 29
44 118 77 159 42 49 38 47 63 34z m535 -47 c93 -22 196 -88 275 -178 82 -92
126 -174 156 -287 14 -51 30 -104 37 -117 19 -38 75 -85 108 -92 30 -7 111 12
134 31 6 5 40 16 75 24 56 13 73 13 139 1 151 -29 206 -14 276 73 23 30 55 57
77 65 35 14 38 14 62 -8 l24 -23 -49 -53 c-27 -29 -49 -60 -49 -67 0 -29 -42
-81 -82 -102 -46 -24 -98 -21 -153 8 -20 10 -58 16 -110 16 -76 1 -82 -1 -125
-34 -25 -19 -62 -50 -83 -70 -37 -34 -40 -35 -117 -34 -61 1 -89 6 -127 25
-26 13 -47 29 -46 36 2 7 -3 10 -11 7 -14 -5 -29 10 -32 33 -3 15 -44 83 -50
83 -3 0 -2 -5 2 -12 4 -7 3 -8 -5 -4 -6 4 -9 11 -6 16 8 13 -6 41 -18 33 -6
-3 -7 -1 -3 5 4 6 -9 43 -29 81 -19 39 -35 83 -36 98 0 25 -1 26 -9 8 -7 -17
-9 -17 -9 -3 -1 22 -29 84 -55 123 -11 16 -21 36 -23 43 -2 18 -53 72 -67 72
-6 0 0 -7 12 -16 12 -8 22 -19 22 -25 0 -9 -45 31 -45 41 -1 15 -19 31 -32 26
-9 -4 -11 -2 -7 6 5 8 2 9 -9 5 -10 -4 -16 -2 -14 5 1 6 -4 13 -12 16 -8 2
-11 0 -8 -5 4 -6 -12 -4 -36 4 -64 23 -183 10 -257 -27 -32 -16 -61 -26 -65
-22 -4 4 -5 3 -4 -3 4 -12 -120 -132 -129 -125 -3 3 -6 -4 -8 -14 -1 -11 -13
-29 -25 -40 -14 -13 -18 -14 -10 -3 19 24 8 21 -15 -5 -10 -12 -13 -18 -5 -13
9 5 12 3 9 -6 -3 -8 -11 -13 -17 -11 -7 1 -10 -2 -7 -7 7 -11 -106 -151 -136
-168 -42 -23 -81 -16 -115 20 -46 49 -63 79 -58 101 2 12 6 37 9 56 l6 35 -16
-25 -15 -25 7 25 c17 65 22 70 61 69 32 0 35 -2 18 -10 -17 -8 -16 -8 5 -3 14
3 42 9 63 11 21 3 48 15 61 27 128 122 269 246 301 266 22 13 72 33 110 46 80
26 169 25 290 -3z m-465 -60 c0 -5 -19 -19 -41 -33 -22 -13 -76 -59 -119 -102
-44 -42 -80 -75 -80 -74 0 55 167 212 228 215 6 1 12 -2 12 -6z m1573 -78 c19
-36 38 -80 41 -99 6 -29 4 -34 -16 -39 -13 -2 -31 -8 -40 -12 -16 -6 -18 -1
-18 38 0 45 -1 47 -50 74 -27 15 -50 31 -50 34 0 4 12 10 26 13 14 4 33 20 42
36 9 15 20 26 24 24 4 -3 22 -34 41 -69z m-822 22 c19 -10 62 -43 95 -75 34
-31 73 -65 88 -75 l26 -18 -25 -42 c-30 -52 -41 -56 -48 -20 -9 43 -81 146
-142 201 -57 52 -55 58 6 29z m-322 -71 c30 -13 69 -35 86 -49 43 -34 112
-138 126 -190 6 -23 31 -83 55 -132 24 -50 44 -95 44 -101 0 -5 16 -27 35 -48
19 -21 35 -44 35 -51 0 -24 -12 -45 -26 -45 -14 0 -54 -20 -64 -31 -9 -11 -45
-27 -109 -49 -54 -18 -81 -21 -175 -17 -141 5 -335 54 -382 98 -11 10 -27 19
-35 19 -18 0 -66 38 -137 108 -29 28 -57 52 -62 52 -6 0 -10 7 -10 16 0 8 -4
12 -10 9 -5 -3 -10 1 -10 10 0 8 7 18 15 21 8 4 15 11 15 17 0 5 17 27 38 47
20 20 66 73 102 119 66 84 147 154 228 197 62 33 165 33 241 0z m1022 7 c19
-11 27 -23 24 -32 -3 -9 -3 -12 1 -8 14 14 34 -17 34 -54 0 -39 -28 -93 -71
-135 -24 -25 -84 -38 -110 -24 -10 6 -30 10 -46 10 -30 0 -93 33 -93 50 0 5
-8 7 -17 4 -10 -3 6 8 36 25 29 17 58 28 63 25 4 -3 7 0 6 7 -2 6 3 14 11 17
9 3 11 0 6 -8 -5 -9 -4 -11 3 -6 7 4 12 14 12 22 0 8 6 15 13 16 6 0 17 2 22
2 18 3 35 17 30 26 -5 8 34 80 43 80 2 0 17 -8 33 -17z m190 -133 c10 0 18 -3
17 -7 -1 -5 5 -21 12 -37 13 -25 12 -30 -5 -42 -10 -8 -31 -14 -46 -14 -15 0
-31 -4 -34 -10 -9 -15 -71 -12 -84 4 -20 24 21 93 62 105 17 5 38 7 45 5 8 -2
22 -4 33 -4z m-616 -20 c17 -11 38 -20 48 -20 21 0 97 -37 97 -48 0 -20 -78
-153 -83 -141 -3 8 -3 0 0 -17 8 -46 -21 -86 -56 -78 -14 4 -36 18 -48 33 -20
24 -73 160 -73 188 0 18 62 103 74 103 6 0 25 -9 41 -20z m185 -89 c0 -5 9
-13 20 -16 11 -4 18 -10 15 -15 -3 -5 0 -12 6 -16 8 -5 9 -3 4 6 -6 9 0 10 26
5 47 -11 130 -8 142 4 22 22 46 12 51 -21 10 -64 13 -138 6 -138 -4 0 -27 7
-51 16 -88 33 -194 20 -291 -34 -26 -15 -50 -24 -53 -20 -3 3 5 23 20 43 14
21 25 42 25 47 0 5 13 36 30 70 16 33 27 64 24 69 -3 5 2 9 10 9 9 0 16 -4 16
-9z m490 -24 c0 -27 -111 -141 -154 -157 -16 -6 -30 -9 -31 -8 -1 2 -5 36 -7
76 l-5 74 31 -6 c21 -4 49 3 86 18 71 30 80 31 80 3z m-2147 -89 c8 -13 26
-35 40 -49 l26 -25 -30 -18 c-43 -26 -121 -26 -148 -2 l-22 20 48 48 c26 26
53 48 59 48 6 0 18 -10 27 -22z m2307 -45 c31 -21 40 -33 40 -55 0 -27 -17
-21 -37 12 -17 29 -37 38 -47 22 -3 -5 4 -18 14 -30 11 -12 20 -26 20 -32 0
-11 -41 -30 -65 -30 -32 0 -24 67 13 113 19 21 31 21 62 0z m-2033 -100 c3 -7
10 -13 15 -13 6 0 35 -21 65 -46 79 -68 193 -130 276 -150 40 -9 83 -21 97
-27 14 -6 32 -12 40 -15 8 -3 74 -5 145 -5 l130 1 100 54 c55 30 109 60 121
67 18 12 26 10 62 -14 l42 -28 -37 -33 c-21 -18 -87 -71 -148 -117 -94 -72
-120 -87 -177 -101 -37 -9 -78 -16 -91 -16 -25 0 -66 -25 -56 -34 9 -9 181 24
225 43 23 10 100 66 171 124 72 58 144 108 161 112 17 3 49 1 71 -5 29 -8 52
-8 79 0 38 10 44 7 70 -36 4 -6 26 -21 50 -33 61 -31 88 -17 129 67 0 2 19 -8
42 -22 22 -14 49 -26 59 -26 18 0 62 34 62 48 0 5 16 6 35 4 50 -6 68 13 62
60 -5 37 -3 39 36 59 23 12 49 31 59 42 12 16 19 18 30 10 7 -6 22 -13 33 -15
17 -3 13 -9 -23 -35 -24 -18 -47 -33 -52 -35 -5 -2 -40 -57 -78 -123 -118
-202 -133 -223 -242 -334 -119 -122 -201 -172 -352 -215 -158 -45 -280 -47
-503 -9 -82 14 -163 27 -180 30 -58 10 -189 84 -261 148 -91 82 -189 216 -231
319 -19 45 -42 99 -53 120 -11 22 -19 40 -17 42 10 10 136 -89 207 -162 94
-98 186 -169 232 -179 48 -11 42 1 -19 35 -31 18 -114 87 -183 154 -70 66
-153 137 -185 156 -63 37 -175 139 -175 158 0 7 15 12 34 12 19 0 37 4 41 9 7
12 74 -26 82 -46z m1609 -63 c52 -9 85 -20 144 -50 8 -4 16 -19 18 -34 3 -20
-1 -26 -15 -25 -32 1 -54 14 -66 39 -9 19 -22 26 -50 28 -47 4 -48 -9 -2 -31
41 -19 49 -59 15 -77 -23 -12 -53 3 -112 59 -42 39 -57 36 -39 -7 9 -22 9 -35
0 -55 -20 -45 -70 -47 -116 -4 -37 33 -28 57 38 107 87 65 90 66 185 50z"/>
<path d="M1719 1526 c8 -9 28 -27 45 -38 l31 -22 -25 28 c-14 15 -34 33 -45
39 -18 9 -19 9 -6 -7z"/>
<path d="M1170 1332 c-29 -17 -39 -28 -29 -30 17 -3 88 37 89 51 0 12 -13 7
-60 -21z"/>
<path d="M1263 1303 c-7 -3 -13 -12 -13 -20 0 -11 5 -13 18 -8 9 5 28 9 42 10
45 4 50 5 50 15 0 10 -71 12 -97 3z"/>
<path d="M1102 1208 c5 -41 2 -46 -54 -105 -32 -34 -58 -66 -58 -71 0 -6 8
-18 18 -28 16 -17 17 -16 22 17 4 24 13 37 33 47 15 7 27 17 27 21 0 5 10 21
22 37 24 30 32 91 16 112 -20 24 -30 12 -26 -30z"/>
<path d="M949 1223 c22 -9 48 -12 77 -7 69 10 51 22 -33 21 -76 0 -77 0 -44
-14z"/>
<path d="M1295 1200 c-10 -15 51 -40 100 -40 25 0 45 5 45 10 0 6 -15 10 -32
10 -18 1 -44 7 -58 15 -30 17 -47 19 -55 5z"/>
<path d="M1275 1054 c10 -16 29 -45 42 -64 12 -19 23 -40 23 -46 0 -7 14 -41
31 -76 l31 -63 -6 45 c-11 72 -74 199 -110 217 l-30 16 19 -29z"/>
<path d="M1080 1012 c0 -5 12 -19 26 -31 23 -20 30 -22 53 -11 l26 13 -35 9
c-19 5 -39 14 -44 19 -12 11 -26 12 -26 1z"/>
<path d="M1200 1002 c0 -11 41 -34 48 -27 4 4 -2 13 -12 21 -22 15 -36 18 -36
6z"/>
<path d="M993 824 c-20 -9 -15 -32 7 -39 13 -4 31 0 47 10 18 12 35 15 61 10
20 -4 56 -9 80 -11 25 -2 52 -10 60 -16 21 -18 73 -17 70 0 -5 25 -81 42 -198
47 -63 2 -121 1 -127 -1z"/>
<path d="M1947 634 c-8 -8 3 -34 14 -34 5 0 33 -16 62 -35 44 -29 64 -35 131
-41 59 -5 77 -4 72 4 -4 7 -27 12 -52 12 -50 0 -99 18 -146 53 -43 32 -74 48
-81 41z"/>
<path d="M51 1016 c-15 -61 -14 -86 4 -86 10 0 15 10 15 28 0 15 3 44 6 65 9
53 -11 47 -25 -7z"/>
<path d="M178 1035 c-10 -13 -18 -32 -18 -42 0 -10 -4 -24 -9 -32 -6 -10 -5
-21 4 -34 7 -10 11 -26 8 -37 -3 -10 0 -20 5 -24 15 -9 25 44 11 61 -10 11
-10 16 -1 22 7 4 10 15 6 24 -3 10 3 28 15 43 11 14 18 30 15 35 -8 14 -18 10
-36 -16z"/>
<path d="M2830 1013 c0 -3 8 -15 17 -25 9 -10 18 -38 21 -61 4 -48 6 -52 22
-42 16 10 3 94 -17 118 -16 17 -43 24 -43 10z"/>
<path d="M2975 978 c-4 -10 0 -27 9 -40 l16 -22 0 24 c0 14 -4 32 -10 40 -8
12 -10 12 -15 -2z"/>
<path d="M450 661 c0 -27 5 -53 10 -56 6 -4 10 -14 8 -23 -5 -35 12 -70 37
-76 15 -4 25 -13 25 -25 0 -20 67 -77 78 -66 4 4 -6 18 -23 33 -19 16 -30 35
-30 51 0 22 -5 26 -32 29 -32 3 -33 5 -33 48 0 24 -5 44 -10 44 -6 0 -9 18 -8
41 2 27 -2 43 -9 46 -9 3 -13 -10 -13 -46z"/>
<path d="M270 591 c0 -20 6 -34 16 -38 10 -4 14 -13 10 -29 -5 -17 -1 -26 15
-35 20 -10 21 -9 16 12 -3 13 -1 29 4 36 13 14 4 33 -16 33 -7 0 -15 10 -17
22 -5 35 -28 34 -28 -1z"/>
<path d="M2647 586 c4 -20 0 -28 -21 -37 -25 -12 -35 -42 -17 -53 5 -3 11 -18
14 -32 3 -19 -2 -32 -19 -47 -13 -11 -24 -26 -24 -33 0 -8 -9 -18 -21 -25 -16
-8 -18 -14 -9 -22 9 -9 20 -3 46 28 40 47 55 91 41 123 -8 18 -6 27 12 46 23
25 26 66 5 73 -7 2 -10 -6 -7 -21z"/>
<path d="M150 544 c0 -22 26 -74 36 -74 10 0 10 8 0 37 -11 32 -36 58 -36 37z"/>
<path d="M2734 501 c5 -34 3 -41 -14 -46 -13 -4 -20 -15 -20 -31 0 -31 5 -30
35 4 18 20 24 37 22 70 -1 29 -6 42 -15 42 -11 0 -13 -9 -8 -39z"/>
<path d="M2810 439 c0 -24 23 -21 28 4 2 10 -3 17 -12 17 -10 0 -16 -9 -16
-21z"/>
<path d="M2487 134 c66 -16 88 -37 96 -90 2 -16 3 -9 2 15 -4 59 -26 78 -100
84 l-60 6 62 -15z"/>
<path d="M644 109 c-32 -17 -68 -40 -79 -50 -17 -17 -18 -21 -5 -29 8 -5 24
-9 35 -9 18 0 18 1 -3 10 -13 5 -21 13 -17 19 9 14 90 61 133 76 25 9 30 13
16 14 -12 0 -48 -14 -80 -31z"/>
<path d="M805 129 c-38 -11 -138 -71 -142 -85 -2 -7 8 -15 23 -18 33 -9 45 1
14 12 -21 8 -20 10 26 39 44 29 93 45 164 56 14 3 7 4 -15 5 -22 0 -53 -4 -70
-9z"/>
<path d="M2160 125 c-48 -13 -45 -16 26 -35 38 -9 42 -13 40 -40 -1 -17 2 -30
7 -30 4 0 7 17 5 37 -2 28 -9 41 -28 51 -23 12 -22 13 20 7 88 -12 101 -17
110 -40 5 -13 6 -33 3 -45 -4 -16 -3 -21 5 -16 13 8 16 45 6 71 -4 10 -21 23
-38 31 l-31 13 28 1 c44 0 121 -22 134 -39 7 -9 13 -32 13 -51 0 -28 3 -31 10
-18 7 11 6 29 -3 55 -9 30 -20 41 -47 50 -45 15 -202 14 -260 -2z"/>
<path d="M885 112 c-54 -19 -115 -57 -115 -73 0 -5 11 -9 25 -9 17 0 23 4 19
14 -8 21 35 45 114 67 45 12 57 18 37 18 -16 0 -53 -7 -80 -17z"/>
<path d="M970 103 c-36 -14 -92 -55 -84 -63 14 -12 76 -21 69 -10 -3 6 -13 10
-21 10 -17 0 -18 16 -1 27 6 4 35 16 62 25 42 14 45 17 20 17 -16 -1 -37 -3
-45 -6z"/>
<path d="M1042 79 c-43 -22 -56 -49 -23 -49 10 0 34 -3 52 -6 l34 -5 -40 20
c-22 10 -33 20 -25 21 18 1 56 28 49 35 -3 2 -24 -5 -47 -16z"/>
<path d="M2086 91 c-3 -5 1 -12 10 -15 11 -4 15 -14 12 -31 -6 -27 9 -34 19
-9 12 31 -25 81 -41 55z"/>
</g>
</svg>
